<svg id="Layer_1" data-name="Layer 1" xmlns="http://www.w3.org/2000/svg" viewBox="0 0 28.7 28.7"><defs><style>.cls-1{fill:#fff;}</style></defs><rect class="cls-1" x="3.4" y="3.43" width="22.37" height="21.8"/><path d="M3.31.7A2.61,2.61,0,0,0,.7,3.31V26.79A2.61,2.61,0,0,0,3.31,29.4H26.79a2.61,2.61,0,0,0,2.61-2.61V3.31A2.61,2.61,0,0,0,26.79.7Zm8.23,5.22h3.51a5.64,5.64,0,0,1,5.62,5.66,1.38,1.38,0,0,0,1.4,1.36h.71a1.41,1.41,0,0,1,1.4,1.41v4.21a5.64,5.64,0,0,1-5.62,5.62h-7a5.63,5.63,0,0,1-5.61-5.62v-7A5.64,5.64,0,0,1,11.54,5.92Zm0,4.21a1.41,1.41,0,1,0,0,2.81h3.51a1.41,1.41,0,0,0,0-2.81Zm0,7a1.41,1.41,0,0,0,0,2.81h7a1.41,1.41,0,1,0,0-2.81Z" transform="translate(-0.7 -0.7)"/></svg>